<?xml version="1.0" encoding="iso-8859-1"?>
<!-- Generator: Adobe Illustrator 19.0.0, SVG Export Plug-In . SVG Version: 6.00 Build 0)  -->
<svg version="1.1" id="Capa_1" xmlns="http://www.w3.org/2000/svg" xmlns:xlink="http://www.w3.org/1999/xlink" x="0px" y="0px"
	 viewBox="0 0 480 480" style="enable-background:new 0 0 480 480;" xml:space="preserve">
<g>
	<g>
		<path d="M264,231.99c-4.41,0-8-3.586-8-8c0-4.422-3.582-8-8-8h-24v16h17.371c2.414,6.813,7.82,12.219,14.629,14.633v17.367h16v-24
			C272,235.568,268.418,231.99,264,231.99z"/>
	</g>
</g>
<g>
	<g>
		<path d="M256,295.99v17.367c-6.809,2.414-12.215,7.82-14.629,14.633H224v16h24c4.418,0,8-3.578,8-8c0-4.414,3.59-8,8-8
			c4.418,0,8-3.578,8-8v-24H256z"/>
	</g>
</g>
<g>
	<g>
		<path d="M56,215.99c-4.418,0-8,3.578-8,8c0,4.414-3.59,8-8,8c-4.418,0-8,3.578-8,8v24h16v-17.367
			c6.809-2.414,12.215-7.82,14.629-14.633H80v-16H56z"/>
	</g>
</g>
<g>
	<g>
		<path d="M62.629,327.99c-2.414-6.813-7.82-12.219-14.629-14.633V295.99H32v24c0,4.422,3.582,8,8,8c4.41,0,8,3.586,8,8
			c0,4.422,3.582,8,8,8h24v-16H62.629z"/>
	</g>
</g>
<g>
	<g>
		<path d="M181.242,216.943l-7.586,14.094c18.309,9.859,29.242,28.156,29.242,48.953s-10.934,39.094-29.242,48.953l7.586,14.094
			c23.578-12.703,37.656-36.266,37.656-63.047S204.82,229.646,181.242,216.943z"/>
	</g>
</g>
<g>
	<g>
		<rect x="232" y="271.99" width="16" height="16"/>
	</g>
</g>
<g>
	<g>
		<rect x="56" y="271.99" width="16" height="16"/>
	</g>
</g>
<g>
	<g>
		<path d="M464,223.99v-24h8c4.4,0,8-3.6,8-8v-32c0-4.4-3.6-8-8-8h-8v-16c0-2.56-1.28-5.04-3.36-6.48l-168-120c-2.8-2-6.48-2-9.28,0
			L181.52,82.15l-7.84-7.84c-1.52-1.44-3.52-2.32-5.68-2.32H8c-4.4,0-8,3.6-8,8v80c0,4.4,3.6,8,8,8h44.72l16,16H8c-4.4,0-8,3.6-8,8
			v176c0,4.4,3.6,8,8,8h288c4.4,0,8-3.6,8-8v-176c0-4.4-3.6-8-8-8h-64v-16h232v16H320v16h128v16h-48v16h40v160H120c-4.4,0-8,3.6-8,8
			v24h-8c-4.4,0-8,3.6-8,8v32c0,4.4,3.6,8,8,8h368c4.4,0,8-3.6,8-8v-32c0-4.4-3.6-8-8-8h-8v-24c0-4.4-3.6-8-8-8v-160
			C460.4,231.99,464,228.39,464,223.99z M61.68,154.31c-1.52-1.44-3.52-2.32-5.68-2.32H16v-64h148.72l10.24,10.32l35.36,35.36
			l5.68,5.6v44.72h-24v-24c0-0.16-0.08-0.32-0.08-0.48c-0.08-0.72-0.24-1.44-0.4-2.08c-0.08-0.24-0.16-0.48-0.32-0.72
			c-0.4-0.88-0.88-1.68-1.52-2.4l-24-24c-1.52-1.44-3.52-2.32-5.68-2.32h-32c-4.4,0-8,3.6-8,8v32c0,2.16,0.88,4.16,2.32,5.68
			l21.68,21.6v20.72h-20.72l-29.6-29.68L61.68,154.31z M176,167.99v16h-20.72l-16-16H176z M136,151.99v-8h20.72l8,8H136z
			 M288,199.99v160H16v-160h68.72l26.88,26.88C96.64,240.23,88,259.11,88,279.99c0,26.8,14.08,50.32,37.68,63.04l7.6-14.08
			c-18.32-9.84-29.28-28.16-29.28-48.96c0-20.16,10.4-37.92,27.76-48H144v8h-8c-4.4,0-8,3.6-8,8v32c0,4.4,3.6,8,8,8h24v16h-16v-8
			h-16v16c0,4.4,3.6,8,8,8h8v8h16v-8h8c4.4,0,8-3.6,8-8v-32c0-4.4-3.6-8-8-8h-24v-16h16v8h16v-16c0-4.4-3.6-8-8-8h-8v-40H288z
			 M219.28,119.99l-3.92-4l24.72-17.12c0.48,7.44,2.72,14.72,6.4,21.12H219.28z M448,151.99H232v-16h32c3.44,0,6.48-2.24,7.6-5.44
			c1.04-3.28-0.08-6.88-2.8-8.96c-8-6-12.8-15.6-12.8-25.6c0-3.92,0.72-7.68,2-11.2c1.28-3.28,0.24-7.04-2.48-9.2
			c-2.8-2.16-6.64-2.24-9.52-0.24l-42.16,29.12l-10.88-10.8L288,25.83l160,114.24V151.99z M128,407.99h320v16H128V407.99z
			 M464,439.99v16H112v-16H464z"/>
	</g>
</g>
<g>
	<g>
		<path d="M421.656,274.334l-56-56c-2.293-2.289-5.73-2.984-8.719-1.734c-2.988,1.234-4.938,4.156-4.938,7.391v24h-32v16h40
			c4.418,0,8-3.578,8-8v-12.688l36.688,36.688L368,316.677V303.99c0-4.422-3.582-8-8-8h-40v16h32v24
			c0,3.234,1.949,6.156,4.938,7.391c0.992,0.414,2.031,0.609,3.063,0.609c2.082,0,4.125-0.813,5.656-2.344l56-56
			C424.781,282.521,424.781,277.459,421.656,274.334z"/>
	</g>
</g>
<g>
	<g>
		<rect x="408" y="335.99" width="16" height="40"/>
	</g>
</g>
<g>
	<g>
		<rect x="376" y="359.99" width="16" height="16"/>
	</g>
</g>
<g>
	<g>
		<rect x="320" y="343.99" width="16" height="32"/>
	</g>
</g>
<g>
	<g>
		<path d="M396.555,121.412l-66.559-46.078c-2.887-2-6.73-1.883-9.492,0.281c-2.758,2.164-3.789,5.875-2.535,9.148
			C319.316,88.295,320,92.076,320,95.99c0,10-4.789,19.57-12.809,25.609c-2.75,2.063-3.871,5.664-2.777,8.93
			c1.09,3.258,4.145,5.461,7.586,5.461h80c3.5,0,6.594-2.273,7.637-5.617C400.68,127.037,399.43,123.404,396.555,121.412z
			 M329.531,119.99c3.695-6.406,5.918-13.633,6.379-21.102l30.48,21.102H329.531z"/>
	</g>
</g>
<g>
</g>
<g>
</g>
<g>
</g>
<g>
</g>
<g>
</g>
<g>
</g>
<g>
</g>
<g>
</g>
<g>
</g>
<g>
</g>
<g>
</g>
<g>
</g>
<g>
</g>
<g>
</g>
<g>
</g>
</svg>
