<?xml version="1.0" encoding="iso-8859-1"?>
<!-- Generator: Adobe Illustrator 19.0.0, SVG Export Plug-In . SVG Version: 6.00 Build 0)  -->
<svg version="1.1" id="Capa_1" xmlns="http://www.w3.org/2000/svg" xmlns:xlink="http://www.w3.org/1999/xlink" x="0px" y="0px"
	 viewBox="0 0 512 512" style="enable-background:new 0 0 512 512;" xml:space="preserve">
<g>
	<g>
		<g>
			<polygon points="117.269,322.334 117.269,511.826 157.242,511.826 157.241,281.588 			"/>
			<polygon points="195.216,511.826 235.188,511.826 235.188,307.318 195.216,267.346 			"/>
			<polygon points="38.322,511.826 78.295,511.826 78.295,362.064 38.322,402.812 			"/>
			<polygon points="392.081,0.173 392.081,40.146 444.761,40.146 262.919,221.989 182.265,141.335 0,329.017 28.676,356.865 
				182.683,198.282 262.919,278.519 472.027,69.411 472.027,119.093 512,119.093 512,0.173 			"/>
			<polygon points="431.055,166.913 431.055,511.827 471.028,511.827 471.028,161.064 436.904,161.064 			"/>
			<polygon points="273.162,511.826 313.135,511.826 313.135,284.833 273.162,324.806 			"/>
			<polygon points="352.109,511.827 392.081,511.827 392.081,205.887 352.109,245.859 			"/>
		</g>
	</g>
</g>
<g>
</g>
<g>
</g>
<g>
</g>
<g>
</g>
<g>
</g>
<g>
</g>
<g>
</g>
<g>
</g>
<g>
</g>
<g>
</g>
<g>
</g>
<g>
</g>
<g>
</g>
<g>
</g>
<g>
</g>
</svg>
