<?xml version="1.0" encoding="iso-8859-1"?>
<!-- Generator: Adobe Illustrator 19.0.0, SVG Export Plug-In . SVG Version: 6.00 Build 0)  -->
<svg version="1.1" id="Capa_1" xmlns="http://www.w3.org/2000/svg" xmlns:xlink="http://www.w3.org/1999/xlink" x="0px" y="0px"
	 viewBox="0 0 512 512" style="enable-background:new 0 0 512 512;" xml:space="preserve">
<g>
	<g>
		<path d="M489.5,0h-467C10.094,0,0,10.093,0,22.5v251.999c0,12.407,10.094,22.5,22.5,22.5h103.502V489.5
			c0,12.407,10.094,22.5,22.5,22.5h214.996c12.406,0,22.5-10.093,22.5-22.5V296.999H489.5c12.406,0,22.5-10.093,22.5-22.5V22.5
			C512,10.093,501.906,0,489.5,0z M126.002,251.999H83.5v-45h42.502V251.999z M370.999,489.5h-0.001c0,4.136-3.364,7.5-7.5,7.5
			H148.502c-4.136,0-7.5-3.364-7.5-7.5V206.999h15V414.5c0,4.142,3.358,7.5,7.5,7.5c28.949,0,52.5,23.551,52.5,52.5
			c0,4.142,3.358,7.5,7.5,7.5h64.997c4.142,0,7.5-3.358,7.5-7.5c0-28.949,23.551-52.5,52.5-52.5c4.142,0,7.5-3.358,7.5-7.5
			c0-2.293,0-145.049,0-207.501h15V489.5z M171.002,407.414V206.999h169.997c0,63.534,0,194.587,0,200.415
			c-31.239,3.469-56.117,28.347-59.586,59.586h-50.825C227.118,435.761,202.241,410.883,171.002,407.414z M497,274.499
			c0,4.135-3.364,7.5-7.5,7.5H385.998v-15H436c4.143,0,7.5-3.358,7.5-7.5v-60c0-4.142-3.357-7.5-7.5-7.5H76
			c-4.143,0-7.5,3.358-7.5,7.5v60c0,4.142,3.357,7.5,7.5,7.5h50.002v15H22.5c-4.136,0-7.5-3.365-7.5-7.5V147h459.35
			c4.141,0,7.5-3.37,7.5-7.5c0-4.14-3.359-7.5-7.5-7.5H15V22.5c0-4.135,3.364-7.5,7.5-7.5h467c4.136,0,7.5,3.365,7.5,7.5V274.499z
			 M385.998,251.999v-45H428.5v45H385.998z"/>
	</g>
</g>
<g>
	<g>
		<path d="M256,254.503c-38.598,0-70,25.794-70,57.5s31.402,57.5,70,57.5c38.598,0,70-25.794,70-57.5S294.598,254.503,256,254.503z
			 M256,354.503c-30.327,0-55-19.065-55-42.5s24.673-42.5,55-42.5c30.327,0,55,19.065,55,42.5S286.327,354.503,256,354.503z"/>
	</g>
</g>
<g>
	<g>
		<path d="M286.246,304.257h-0.5v-3.502c0-4.142-3.356-7.5-7.5-7.5c-4.142,0-7.5,3.358-7.5,7.5v11.249
			c0,2.066-1.683,3.75-3.749,3.75s-3.75-1.682-3.75-3.75c0-10.338-8.41-18.748-18.747-18.748c-7.574,0-14.098,4.523-17.053,11.002
			h-1.695c-4.143,0-7.498,3.357-7.498,7.5c0,4.141,3.355,7.499,7.498,7.499v2.499c0,4.143,3.356,7.5,7.5,7.5
			c4.142,0,7.5-3.357,7.5-7.5v-9.751c0-2.067,1.683-3.75,3.749-3.75c2.066,0,3.749,1.683,3.749,3.75
			c0,10.336,8.411,18.747,18.748,18.747c7.767-0.001,14.444-4.75,17.286-11.496h1.962c4.142,0,7.5-3.358,7.5-7.499
			C293.746,307.615,290.388,304.257,286.246,304.257z"/>
	</g>
</g>
<g>
	<g>
		<path d="M350.579,450.417c-2.928-2.928-7.677-2.928-10.606,0.001c-2.929,2.929-2.929,7.678,0,10.606
			c1.364,1.365,1.364,3.585,0,4.95c-1.365,1.364-3.585,1.364-4.95,0c-2.929-2.929-7.678-2.928-10.607,0
			c-2.928,2.929-2.928,7.677,0,10.607c7.213,7.212,18.95,7.212,26.163,0c3.606-3.607,5.41-8.345,5.41-13.082
			C355.989,458.761,354.185,454.024,350.579,450.417z"/>
	</g>
</g>
<g>
	<g>
		<path d="M187.585,465.975c-2.93-2.929-7.679-2.929-10.608,0c-1.365,1.365-3.585,1.365-4.95,0c-1.364-1.365-1.364-3.585,0-4.95
			c2.929-2.929,2.929-7.678,0-10.606c-2.929-2.929-7.678-2.929-10.606,0c-7.213,7.213-7.213,18.95,0,26.163
			c7.212,7.213,18.949,7.213,26.163,0c1.464-1.464,2.197-3.384,2.197-5.304S189.049,467.44,187.585,465.975z"/>
	</g>
</g>
<g>
</g>
<g>
</g>
<g>
</g>
<g>
</g>
<g>
</g>
<g>
</g>
<g>
</g>
<g>
</g>
<g>
</g>
<g>
</g>
<g>
</g>
<g>
</g>
<g>
</g>
<g>
</g>
<g>
</g>
</svg>
